<svg width="42" height="170" viewBox="0 0 42 170" fill="none" xmlns="http://www.w3.org/2000/svg">
<g opacity="0.5">
<rect width="15.8667" height="14.9124" transform="matrix(-1 0 0 1 29.8667 77.3581)" fill="white"/>
<path d="M20.0293 78.0478L14.6907 83.379C14.3142 83.7549 14.126 84.2334 14.126 84.8143C14.126 85.3953 14.3142 85.8737 14.6907 86.2496L20.0807 91.6321C20.4571 92.008 20.9273 92.1878 21.4913 92.1714C22.0567 92.1536 22.5276 91.9567 22.904 91.5808C23.2804 91.2049 23.4687 90.7265 23.4687 90.1455C23.4687 89.5645 23.2804 89.0861 22.904 88.7102L21.056 86.8648L27.678 86.8648C28.2598 86.8648 28.7389 86.6686 29.1153 86.2763C29.4918 85.8826 29.68 85.3953 29.68 84.8143C29.68 84.2334 29.4829 83.7467 29.0886 83.3544C28.6958 82.9607 28.2084 82.7639 27.6267 82.7639L21.056 82.7639L22.9553 80.8672C23.3318 80.4913 23.5118 80.021 23.4954 79.4565C23.4776 78.8933 23.2804 78.4237 22.904 78.0478C22.5276 77.6719 22.0484 77.4839 21.4667 77.4839C20.8849 77.4839 20.4058 77.6719 20.0293 78.0478ZM21.4667 64.3098C24.3071 64.3098 26.9764 64.8483 29.4747 65.9255C31.9729 67.0013 34.146 68.4619 35.994 70.3073C37.842 72.1528 39.3047 74.3228 40.382 76.8175C41.4607 79.3123 42 81.9779 42 84.8143C42 87.6508 41.4607 90.3164 40.382 92.8111C39.3047 95.3058 37.842 97.4759 35.994 99.3213C34.146 101.167 31.9729 102.628 29.4747 103.705C26.9764 104.781 24.3071 105.319 21.4667 105.319C18.6262 105.319 15.9569 104.781 13.4587 103.705C10.9604 102.628 8.78733 101.167 6.93933 99.3213C5.09133 97.4759 3.62868 95.3058 2.55136 92.8111C1.47268 90.3164 0.933336 87.6508 0.933336 84.8143C0.933336 81.9779 1.47268 79.3123 2.55136 76.8175C3.62868 74.3228 5.09133 72.1528 6.93933 70.3073C8.78734 68.4619 10.9604 67.0013 13.4587 65.9255C15.9569 64.8483 18.6262 64.3098 21.4667 64.3098Z" fill="#619A3F"/>
<path d="M0.0390523 8.0219C0.721667 32.5817 10.3531 62.7644 28.9333 65.447L0 93.2026C0.115937 66.7823 0.0776969 25.3375 0.0390523 8.0219C0.0130174 7.08519 0 6.15666 0 5.23815C0 -3.3025 0.0195775 -0.704246 0.0390523 8.0219Z" fill="#619A3F"/>
<path d="M0.0377926 161.946C0.698387 137.289 10.0191 106.986 28 104.292L0 76.4261C0.112197 102.952 0.0751905 144.562 0.0377926 161.946C0.0125975 162.887 0 163.819 0 164.741C0 173.316 0.018946 170.707 0.0377926 161.946Z" fill="#619A3F"/>
</g>
</svg>
