<svg width="42" height="170" viewBox="0 0 42 170" fill="none" xmlns="http://www.w3.org/2000/svg">
<g opacity="0.5">
<rect x="12.1333" y="77.3581" width="15.8667" height="14.9124" fill="white"/>
<path d="M21.9707 78.0478L27.3093 83.379C27.6858 83.7549 27.874 84.2334 27.874 84.8143C27.874 85.3953 27.6858 85.8737 27.3093 86.2496L21.9193 91.6321C21.5429 92.008 21.0727 92.1878 20.5087 92.1714C19.9433 92.1536 19.4724 91.9567 19.096 91.5808C18.7196 91.2049 18.5313 90.7265 18.5313 90.1455C18.5313 89.5645 18.7196 89.0861 19.096 88.7102L20.944 86.8648L14.322 86.8648C13.7402 86.8648 13.2611 86.6686 12.8847 86.2763C12.5082 85.8826 12.32 85.3953 12.32 84.8143C12.32 84.2334 12.5171 83.7467 12.9114 83.3544C13.3042 82.9607 13.7916 82.7639 14.3733 82.7639L20.944 82.7639L19.0447 80.8672C18.6682 80.4913 18.4882 80.021 18.5046 79.4565C18.5224 78.8933 18.7196 78.4237 19.096 78.0478C19.4724 77.6719 19.9516 77.4839 20.5333 77.4839C21.1151 77.4839 21.5942 77.6719 21.9707 78.0478ZM20.5333 64.3098C17.6929 64.3098 15.0236 64.8483 12.5253 65.9255C10.0271 67.0013 7.854 68.4619 6.006 70.3073C4.158 72.1528 2.69534 74.3228 1.61802 76.8175C0.53934 79.3123 -2.0434e-06 81.9779 -1.79508e-06 84.8143C-1.54676e-06 87.6508 0.539341 90.3164 1.61803 92.8111C2.69534 95.3058 4.158 97.4759 6.006 99.3213C7.854 101.167 10.0271 102.628 12.5253 103.705C15.0236 104.781 17.6929 105.319 20.5333 105.319C23.3738 105.319 26.0431 104.781 28.5413 103.705C31.0396 102.628 33.2127 101.167 35.0607 99.3213C36.9087 97.4759 38.3713 95.3058 39.4486 92.8111C40.5273 90.3164 41.0667 87.6508 41.0667 84.8143C41.0667 81.9779 40.5273 79.3123 39.4486 76.8175C38.3713 74.3228 36.9087 72.1528 35.0607 70.3073C33.2127 68.4619 31.0396 67.0013 28.5413 65.9255C26.0431 64.8483 23.3738 64.3098 20.5333 64.3098Z" fill="#619A3F"/>
<path d="M41.9609 8.0219C41.2783 32.5817 31.6469 62.7644 13.0667 65.447L42 93.2026C41.8841 66.7823 41.9223 25.3375 41.9609 8.0219C41.987 7.08519 42 6.15666 42 5.23815C42 -3.3025 41.9804 -0.704246 41.9609 8.0219Z" fill="#619A3F"/>
<path d="M41.9622 161.946C41.3016 137.289 31.9809 106.986 14 104.292L42 76.4261C41.8878 102.952 41.9248 144.562 41.9622 161.946C41.9874 162.887 42 163.819 42 164.741C42 173.316 41.9811 170.707 41.9622 161.946Z" fill="#619A3F"/>
</g>
</svg>
